<?xml version="1.0" encoding="UTF-8" standalone="no"?>
<svg
   xmlns:dc="http://purl.org/dc/elements/1.1/"
   xmlns:cc="http://creativecommons.org/ns#"
   xmlns:rdf="http://www.w3.org/1999/02/22-rdf-syntax-ns#"
   xmlns:svg="http://www.w3.org/2000/svg"
   xmlns="http://www.w3.org/2000/svg"
   id="svg232"
   version="1.1"
   viewBox="0 0 86.008186 20.771557"
   height="20.771557mm"
   width="86.008186mm">
  <defs
     id="defs226" />
  <metadata
     id="metadata229">
    <rdf:RDF>
      <cc:Work
         rdf:about="">
        <dc:format>image/svg+xml</dc:format>
        <dc:type
           rdf:resource="http://purl.org/dc/dcmitype/StillImage" />
        <dc:title></dc:title>
      </cc:Work>
    </rdf:RDF>
  </metadata>
  <g
     transform="translate(-93.823288,-220.93565)"
     id="layer1">
    <g
       id="g990"
       transform="matrix(0.28222223,0,0,0.28222223,70.103719,128.80802)"
       style="font-style:normal;font-weight:normal;font-size:40px;line-height:125%;font-family:sans-serif;letter-spacing:0px;word-spacing:0px;fill:#000000;fill-opacity:1;stroke:none;stroke-width:1px;stroke-linecap:butt;stroke-linejoin:miter;stroke-opacity:1">
      <path
         transform="matrix(0.93749998,0,0,0.93749998,84.045713,326.43648)"
         d="m 92.371094,3.6901042 0,41.7063798 c 0,9.557334 3.243911,16.042969 13.142576,16.042969 1.97784,0 3.63821,-0.189993 4.98111,-0.493119 1.23705,-0.279233 2.0254,-1.717187 1.82624,-2.971654 l -1.34641,-8.480539 c -0.68267,0.170666 -1.02316,0.169921 -1.53516,0.169921 -1.024,0 -2.39062,-0.852572 -2.39062,-3.753906 V 3.6901042 c 0,-1.4727594 -1.19391,-2.6666667 -2.66667,-2.6666667 h -9.344399 c -1.47276,0 -2.666667,1.1939073 -2.666667,2.6666667 z M 0,7.6158855 V 57.749349 c 0,1.47276 1.1939073,2.666667 2.6666667,2.666667 h 9.3444003 c 1.47276,0 2.666667,-1.193907 2.666667,-2.666667 V 42.837891 h 5.972657 c 11.605333,0 22.1875,-5.889031 22.1875,-19.457032 0,-13.9946667 -10.411964,-18.4316402 -22.529297,-18.4316402 l -17.6419273,0 C 1.1939073,4.9492188 0,6.1431261 0,7.6158855 Z M 259.961,8.9178163 258.60352,17.75 l -4.02939,0.317886 c -1.38711,0.109432 -2.45694,1.266983 -2.45694,2.658407 v 5.790634 c 0,1.47276 1.19391,2.666667 2.66667,2.666667 H 257.75 V 44.03125 c 0,10.410667 4.60784,17.408203 15.70117,17.408203 3.20496,0 5.69319,-0.39753 7.65554,-0.867049 1.34475,-0.321749 2.18272,-1.765515 1.89889,-3.119235 l -1.19286,-5.689172 c -0.28275,-1.348531 -1.57128,-2.049157 -2.93373,-1.856617 -0.43595,0.06161 -0.884,0.09848 -1.33213,0.09848 -2.73067,0 -5.1211,-1.537135 -5.1211,-6.230468 V 29.183594 h 7.06185 c 1.47276,0 2.66667,-1.193907 2.66667,-2.666667 l 0,-6.10026 c 0,-1.47276 -1.19391,-2.666667 -2.66667,-2.666667 h -7.06185 V 9.3229167 c 0,-1.4727594 -1.19391,-2.6666667 -2.66667,-2.6666667 h -7.1624 c -1.31633,0 -2.43575,0.9605064 -2.63571,2.2615663 z M 14.677734,16.554688 h 4.949219 c 5.632,0 8.875,1.876838 8.875,6.826171 0,4.949334 -2.730536,7.851563 -8.533203,7.851563 h -5.291016 z m 51.105469,0.169921 c -10.922667,0 -21.164062,8.192089 -21.164062,22.357422 0,14.165334 10.241395,22.357422 21.164062,22.357422 10.922667,0 21.162109,-8.192088 21.162109,-22.357422 0,-14.165333 -10.239442,-22.357422 -21.162109,-22.357422 z m 163.865237,0 c -10.92267,0 -21.16211,8.192089 -21.16211,22.357422 0,14.165334 10.23944,22.357422 21.16211,22.357422 10.92266,0 21.16406,-8.192088 21.16406,-22.357422 0,-14.165333 -10.2414,-22.357422 -21.16406,-22.357422 z m 76.81836,0 c -10.41067,0 -20.48047,8.533422 -20.48047,22.357422 0,14.165334 9.55696,22.357422 22.01562,22.357422 4.07171,0 9.13507,-1.238964 13.39462,-3.611459 1.2163,-0.677458 1.59312,-2.327499 0.92266,-3.548405 l -2.39252,-4.356793 c -0.64772,-1.179507 -2.12015,-1.588399 -3.35126,-1.046323 -2.22546,0.979895 -4.3258,1.46923 -6.52467,1.46923 -4.77867,0 -8.5331,-1.706172 -9.89844,-6.826172 H 322.07 c 1.32695,0 2.63662,-1.052813 2.78381,-2.370776 0.1244,-1.11382 0.2165,-2.44262 0.2165,-3.771802 0,-11.434667 -5.97418,-20.652344 -18.60351,-20.652344 z m 0.34179,11.09375 c 4.43734,0 5.80274,2.901865 5.80274,6.144532 h -12.63086 c 0.85333,-4.266667 3.58546,-6.144532 6.82812,-6.144532 z M 65.783203,28.501953 c 4.437334,0 6.142578,4.094745 6.142578,10.580078 0,6.485334 -1.705244,10.582031 -6.142578,10.582031 -4.437333,0 -6.144531,-4.096697 -6.144531,-10.582031 0,-6.485333 1.707198,-10.580078 6.144531,-10.580078 z m 163.865237,0 c 4.43733,0 6.14453,4.094745 6.14453,10.580078 0,6.485334 -1.7072,10.582031 -6.14453,10.582031 -4.43734,0 -6.14258,-4.096697 -6.14258,-10.582031 0,-6.485333 1.70524,-10.580078 6.14258,-10.580078 z"
         style="font-style:normal;font-variant:normal;font-weight:900;font-stretch:normal;font-size:80px;font-family:'Source Sans Pro';-inkscape-font-specification:'Source Sans Pro Heavy';stroke-width:1.06667px"
         id="path4141" />
      <path
         id="path4147"
         style="font-style:normal;font-variant:normal;font-weight:900;font-stretch:normal;font-size:80px;font-family:'Source Sans Pro';-inkscape-font-specification:'Source Sans Pro Heavy';fill:#5e5184;fill-opacity:1"
         d="m 220.15785,344.42192 -7.52714,23.61456 h -0.32 l -6.0327,-22.65939 a 2.6666666,2.6666666 37.545871 0 0 -2.5769,-1.98061 l -9.07887,0 a 2.6666667,2.6666667 125.40605 0 0 -2.51853,3.54311 l 12.687,36.45689 c 3.36,11.84 8.96,16.64 18.72,16.64 3.82255,0 6.05175,-0.33544 8.08398,-0.94562 1.2986,-0.3899 2.03849,-1.87824 1.69614,-3.19057 l -1.58568,-6.07844 c -0.37248,-1.42786 -1.76386,-2.06432 -3.19141,-1.69585 -0.97655,0.25206 -2.0283,0.39048 -3.40303,0.39048 -2.88,0 -5.92,-1.44 -6.4,-4.32 l -0.16,-0.96 15.62855,-36.36925 a 2.6666667,2.6666667 58.472748 0 0 -2.27834,-3.71396 l -9.03067,-0.58263 a 2.6666666,2.6666666 145.68553 0 0 -2.7124,1.85128 z" />
      <path
         id="path4149"
         style="font-style:normal;font-variant:normal;font-weight:900;font-stretch:normal;font-size:80px;font-family:'Source Sans Pro';-inkscape-font-specification:'Source Sans Pro Heavy';fill:#516a84;fill-opacity:1"
         d="m 247.47732,382.05104 7.52714,-23.61456 h 0.32 l 6.0327,22.65939 a 2.6666666,2.6666666 37.545871 0 0 2.5769,1.98061 h 9.07887 a 2.6666667,2.6666667 125.40605 0 0 2.51853,-3.54311 l -12.687,-36.45689 c -3.36,-11.84 -8.96,-16.64 -18.72,-16.64 -3.82255,0 -6.05175,0.33544 -8.08398,0.94562 -1.2986,0.3899 -2.03849,1.87824 -1.69614,3.19057 l 1.58568,6.07844 c 0.37248,1.42786 1.76386,2.06432 3.19141,1.69585 0.97655,-0.25206 2.0283,-0.39048 3.40303,-0.39048 2.88,0 5.92,1.44 6.4,4.32 l 0.16,0.96 -15.62855,36.36925 a 2.6666667,2.6666667 58.472748 0 0 2.27834,3.71396 l 9.03067,0.58263 a 2.6666666,2.6666666 145.68553 0 0 2.7124,-1.85128 z" />
    </g>
  </g>
</svg>
