<?xml version="1.0" encoding="UTF-8" standalone="no"?>
<svg
   xmlns:dc="http://purl.org/dc/elements/1.1/"
   xmlns:cc="http://creativecommons.org/ns#"
   xmlns:rdf="http://www.w3.org/1999/02/22-rdf-syntax-ns#"
   xmlns:svg="http://www.w3.org/2000/svg"
   xmlns="http://www.w3.org/2000/svg"
   width="24.241125mm"
   height="20.771557mm"
   viewBox="0 0 85.893751 73.600005"
   id="svg2"
   version="1.1">
  <metadata
     id="metadata935">
    <rdf:RDF>
      <cc:Work
         rdf:about="">
        <dc:format>image/svg+xml</dc:format>
        <dc:type
           rdf:resource="http://purl.org/dc/dcmitype/StillImage" />
        <dc:title></dc:title>
      </cc:Work>
    </rdf:RDF>
  </metadata>
  <defs
     id="defs933" />
  <g
     id="layer1"
     transform="translate(-190.87071,-326.43648)">
    <path
       id="path4147"
       style="font-style:normal;font-variant:normal;font-weight:900;font-stretch:normal;font-size:80px;line-height:125%;font-family:'Source Sans Pro';-inkscape-font-specification:'Source Sans Pro Heavy';letter-spacing:0px;word-spacing:0px;fill:#5e5184;fill-opacity:1;stroke:none;stroke-width:1px;stroke-linecap:butt;stroke-linejoin:miter;stroke-opacity:1"
       d="m 220.79071,342.43648 -8.16,25.6 h -0.32 l -6.56,-24.64 h -14.88 l 13.92,40 c 3.36,11.84 8.96,16.64 18.72,16.64 5.28,0 7.52,-0.64 10.4,-1.76 l -2.88,-11.04 c -1.92,0.8 -3.36,1.28 -5.92,1.28 -2.88,0 -5.92,-1.44 -6.4,-4.32 l -0.16,-0.96 17.12,-39.84 z" />
    <path
       id="path4149"
       style="font-style:normal;font-variant:normal;font-weight:900;font-stretch:normal;font-size:80px;line-height:125%;font-family:'Source Sans Pro';-inkscape-font-specification:'Source Sans Pro Heavy';letter-spacing:0px;word-spacing:0px;fill:#516a84;fill-opacity:1;stroke:none;stroke-width:1px;stroke-linecap:butt;stroke-linejoin:miter;stroke-opacity:1"
       d="m 246.84446,384.03648 8.16,-25.6 h 0.32 l 6.56,24.64 h 14.88 l -13.92,-40 c -3.36,-11.84 -8.96,-16.64 -18.72,-16.64 -5.28,0 -7.52,0.64 -10.4,1.76 l 2.88,11.04 c 1.92,-0.8 3.36,-1.28 5.92,-1.28 2.88,0 5.92,1.44 6.4,4.32 l 0.16,0.96 -17.12,39.84 z" />
  </g>
</svg>
