<?xml version="1.0" encoding="UTF-8" standalone="no"?>
<svg
   xmlns:svg="http://www.w3.org/2000/svg"
   xmlns="http://www.w3.org/2000/svg"
   version="1.1"
   id="svg2"
   viewBox="0 0 304.7525 73.599998"
   height="20.771555mm"
   width="86.007927mm">
  <g
     transform="translate(-84.045713,-326.43648)"
     id="layer1">
    <g
       id="text4136"
       style="font-style:normal;font-weight:normal;font-size:40px;line-height:125%;font-family:sans-serif;letter-spacing:0px;word-spacing:0px;fill:#000000;fill-opacity:1;stroke:none;stroke-width:1px;stroke-linecap:butt;stroke-linejoin:miter;stroke-opacity:1">
      <path
         id="path4141"
         style="font-style:normal;font-variant:normal;font-weight:900;font-stretch:normal;font-size:80px;font-family:'Source Sans Pro';-inkscape-font-specification:'Source Sans Pro Heavy'"
         d="m 84.045713,383.07648 13.76,0 0,-16.48 5.599997,0 c 10.88,0 20.8,-5.52 20.8,-18.24 0,-13.12 -9.76,-17.28 -21.12,-17.28 l -19.039997,0 0,52 z m 13.76,-27.36 0,-13.76 4.639997,0 c 5.28,0 8.32,1.76 8.32,6.4 0,4.64 -2.56,7.36 -8,7.36 l -4.959997,0 z" />
      <path
         id="path4143"
         style="font-style:normal;font-variant:normal;font-weight:900;font-stretch:normal;font-size:80px;font-family:'Source Sans Pro';-inkscape-font-specification:'Source Sans Pro Heavy'"
         d="m 145.71696,384.03648 c 10.24,0 19.84,-7.68 19.84,-20.96 0,-13.28 -9.6,-20.96 -19.84,-20.96 -10.24,0 -19.84,7.68 -19.84,20.96 0,13.28 9.6,20.96 19.84,20.96 z m 0,-11.04 c -4.16,0 -5.76,-3.84 -5.76,-9.92 0,-6.08 1.6,-9.92 5.76,-9.92 4.16,0 5.76,3.84 5.76,9.92 0,6.08 -1.6,9.92 -5.76,9.92 z" />
      <path
         id="path4145"
         style="font-style:normal;font-variant:normal;font-weight:900;font-stretch:normal;font-size:80px;font-family:'Source Sans Pro';-inkscape-font-specification:'Source Sans Pro Heavy'"
         d="m 182.96446,384.03648 c 3.04,0 5.28,-0.48 6.72,-1.12 l -1.6,-10.08 c -0.64,0.16 -0.96,0.16 -1.44,0.16 -0.96,0 -2.24,-0.8 -2.24,-3.52 l 0,-42.08 -13.76,0 0,41.6 c 0,8.96 3.04,15.04 12.32,15.04 z" />
      <path
         id="path4147"
         style="font-style:normal;font-variant:normal;font-weight:900;font-stretch:normal;font-size:80px;font-family:'Source Sans Pro';-inkscape-font-specification:'Source Sans Pro Heavy';fill:#5e5184;fill-opacity:1"
         d="m 220.79071,342.43648 -8.16,25.6 -0.32,0 -6.56,-24.64 -14.88,0 13.92,40 c 3.36,11.84 8.96,16.64 18.72,16.64 5.28,0 7.52,-0.64 10.4,-1.76 l -2.88,-11.04 c -1.92,0.8 -3.36,1.28 -5.92,1.28 -2.88,0 -5.92,-1.44 -6.4,-4.32 l -0.16,-0.96 17.12,-39.84 -14.88,-0.96 z" />
      <path
         id="path4149"
         style="font-style:normal;font-variant:normal;font-weight:900;font-stretch:normal;font-size:80px;font-family:'Source Sans Pro';-inkscape-font-specification:'Source Sans Pro Heavy';fill:#516a84;fill-opacity:1"
         d="m 246.84446,384.03648 8.16,-25.6 0.32,0 6.56,24.64 14.88,0 -13.92,-40 c -3.36,-11.84 -8.96,-16.64 -18.72,-16.64 -5.28,0 -7.52,0.64 -10.4,1.76 l 2.88,11.04 c 1.92,-0.8 3.36,-1.28 5.92,-1.28 2.88,0 5.92,1.44 6.4,4.32 l 0.16,0.96 -17.12,39.84 14.88,0.96 z" />
      <path
         id="path4151"
         style="font-style:normal;font-variant:normal;font-weight:900;font-stretch:normal;font-size:80px;font-family:'Source Sans Pro';-inkscape-font-specification:'Source Sans Pro Heavy'"
         d="m 299.34196,384.03648 c 10.24,0 19.84,-7.68 19.84,-20.96 0,-13.28 -9.6,-20.96 -19.84,-20.96 -10.24,0 -19.84,7.68 -19.84,20.96 0,13.28 9.6,20.96 19.84,20.96 z m 0,-11.04 c -4.16,0 -5.76,-3.84 -5.76,-9.92 0,-6.08 1.6,-9.92 5.76,-9.92 4.16,0 5.76,3.84 5.76,9.92 0,6.08 -1.6,9.92 -5.76,9.92 z" />
      <path
         id="path4153"
         style="font-style:normal;font-variant:normal;font-weight:900;font-stretch:normal;font-size:80px;font-family:'Source Sans Pro';-inkscape-font-specification:'Source Sans Pro Heavy'"
         d="m 340.40571,384.03648 c 4.4,0 7.36,-0.8 9.44,-1.44 l -2.08,-9.92 c -0.96,0.32 -2.24,0.64 -3.52,0.64 -2.56,0 -4.8,-1.44 -4.8,-5.84 l 0,-13.68 9.12,0 0,-10.72 -9.12,0 0,-10.4 -11.36,0 -1.6,10.4 -6.08,0.48 0,10.24 5.28,0 0,13.92 c 0,9.76 4.32,16.32 14.72,16.32 z" />
      <path
         id="path4155"
         style="font-style:normal;font-variant:normal;font-weight:900;font-stretch:normal;font-size:80px;font-family:'Source Sans Pro';-inkscape-font-specification:'Source Sans Pro Heavy'"
         d="m 372.79821,384.03648 c 4.48,0 10.24,-1.6 14.56,-4.64 l -4.48,-8.16 c -2.88,1.6 -5.44,2.4 -8.16,2.4 -4.48,0 -8,-1.6 -9.28,-6.4 l 22.8,0 c 0.24,-0.96 0.56,-3.36 0.56,-5.76 0,-10.72 -5.6,-19.36 -17.44,-19.36 -9.76,0 -19.2,8 -19.2,20.96 0,13.28 8.96,20.96 20.64,20.96 z m -7.52,-25.76 c 0.8,-4 3.36,-5.76 6.4,-5.76 4.16,0 5.44,2.72 5.44,5.76 l -11.84,0 z" />
    </g>
  </g>
</svg>
