<?xml version="1.0" encoding="UTF-8" standalone="no"?>
<svg
   xmlns:dc="http://purl.org/dc/elements/1.1/"
   xmlns:cc="http://creativecommons.org/ns#"
   xmlns:rdf="http://www.w3.org/1999/02/22-rdf-syntax-ns#"
   xmlns:svg="http://www.w3.org/2000/svg"
   xmlns="http://www.w3.org/2000/svg"
   id="svg874"
   version="1.1"
   viewBox="0 0 163.1666 28.884663"
   height="28.884663pt"
   width="163.1666pt">
  <defs
     id="defs868" />
  <metadata
     id="metadata871">
    <rdf:RDF>
      <cc:Work
         rdf:about="">
        <dc:format>image/svg+xml</dc:format>
        <dc:type
           rdf:resource="http://purl.org/dc/dcmitype/StillImage" />
        <dc:title></dc:title>
      </cc:Work>
    </rdf:RDF>
  </metadata>
  <g
     transform="translate(-200.38694,-83.075527)"
     id="layer1">
    <g
       transform="matrix(0.04785019,0,0,0.04785019,191.43914,79.899775)"
       id="surface140735-5">
      <path
         style="fill:#eb1923;fill-opacity:1;fill-rule:nonzero;stroke:none"
         d="m 1136.4492,185.80078 h -60.0898 v 336.07031 c 54.6094,1.87891 108.9922,4.63672 163.1523,8.2461 v -59.21094 c -34.2617,-2.28516 -68.6133,-4.21875 -103.0625,-5.82422 z M 1614,185.83594 h -66.0117 l -43.5078,100.85156 -39.0899,-100.85156 h -65.0195 l 69.8672,180.20703 -76.2695,176.78906 c 21.1015,2.05859 42.1406,4.25391 63.1601,6.57422 l 44.3594,-102.79297 43.9336,113.3125 c 22.8789,2.94141 45.6992,6.01172 68.4765,9.26563 l 0.1016,-0.0391 -78.2812,-201.89062 z m -743.91406,333.09765 60.09375,-0.0117 V 382.21875 h 81.46091 V 323.00781 H 930.17969 V 245.58203 H 1037.8398 V 185.83984 H 870.08594 Z M 645.6875,245.57812 h 62.89453 v 276.875 c 19.99609,-0.7539 40.03125,-1.375 60.08984,-1.89843 V 245.57812 H 831.5625 V 185.83594 H 645.6875 Z M 440.24609,539.66406 c 55.38672,-5.03125 111.02735,-9.17969 166.91797,-12.39844 v -59.21875 c -35.71094,2.06641 -71.32031,4.50782 -106.82422,7.30079 v -89.64063 c 23.29688,-0.23047 53.97266,-0.94141 81.14844,-0.60547 v -59.21484 c -21.71094,-0.0508 -56.60547,0.30469 -81.14844,0.61719 V 245.58203 H 607.16406 V 185.83984 H 440.24609 Z M 322.37109,402.78125 244.10547,185.83594 h -57.10938 v 383.36328 c 19.99219,-2.84766 40.02344,-5.57031 60.09375,-8.1875 V 352.54297 l 69.58985,199.91015 c 21.88672,-2.53906 43.8125,-4.9414 65.78515,-7.20312 V 185.83594 h -60.09375 z m 966.67971,130.90234 c 20.0586,1.53516 40.0898,3.17969 60.0976,4.96094 V 185.83594 h -60.0976 v 347.84765"
         id="path258-5" />
    </g>
    <g
       transform="matrix(0.74256908,0,0,0.74256908,262.6436,50.547065)"
       aria-label="OSS"
       id="text20-8"
       style="font-style:normal;font-weight:normal;font-size:24.0214px;line-height:1.25;font-family:sans-serif;fill:#989da4;fill-opacity:1;stroke:none;stroke-width:0.600536">
      <path
         d="m 29.666917,69.874852 c 0,0.844134 0.21885,1.657004 0.656549,2.469873 0.4377,0.81287 1.062984,1.438154 1.875854,1.875854 0.812869,0.437699 1.625739,0.656549 2.469873,0.656549 h 24.167249 c 0.81287,0 1.563212,-0.156322 2.219761,-0.531492 0.656548,-0.375171 1.156776,-0.781606 1.531947,-1.219306 0.37517,-0.437698 0.656549,-0.906662 0.906662,-1.438154 0.21885,-0.531492 0.343907,-1.125512 0.343907,-1.813324 V 58.025709 c 0,-0.81287 -0.187585,-1.563212 -0.531492,-2.251024 -0.37517,-0.65655 -0.81287,-1.188042 -1.313097,-1.625741 C 61.493901,53.742509 60.96241,53.461131 60.399654,53.273545 59.836897,53.08596 59.33667,52.992168 58.836442,52.992168 H 34.669193 c -0.844134,0 -1.657004,0.250114 -2.469873,0.687813 -0.81287,0.437698 -1.438154,1.062983 -1.875854,1.875854 -0.437699,0.81287 -0.656549,1.657004 -0.656549,2.469874 z M 58.836442,58.025709 V 69.874852 H 34.669193 V 58.025709 Z"
         style="font-style:normal;font-variant:normal;font-weight:normal;font-stretch:normal;font-size:28.8257px;font-family:OtomoW05-Regular;-inkscape-font-specification:OtomoW05-Regular;fill:#989da4;fill-opacity:1;stroke-width:0.651339"
         id="path847-1" />
      <path
         d="m 65.694056,74.877128 h 29.169526 c 0.812869,0 1.563211,-0.156322 2.21976,-0.531492 0.656549,-0.375171 1.156777,-0.781606 1.531947,-1.219306 0.375171,-0.437698 0.656549,-0.906662 0.906663,-1.469417 0.21885,-0.531492 0.343906,-1.125513 0.343906,-1.813326 V 66.46705 c 0,-0.81287 -0.187585,-1.563211 -0.531492,-2.251024 -0.37517,-0.656549 -0.812869,-1.188041 -1.313097,-1.62574 -0.500227,-0.406435 -1.031719,-0.687813 -1.594476,-0.875398 -0.562755,-0.187586 -1.062984,-0.281379 -1.563211,-0.281379 H 70.696334 v -3.4078 H 99.865858 V 52.992168 H 70.696334 c -0.844134,0 -1.594476,0.187585 -2.251025,0.562756 -0.656549,0.37517 -1.156777,0.750342 -1.531947,1.18804 -0.375171,0.437699 -0.656549,0.937927 -0.875399,1.469419 -0.250113,0.562756 -0.343907,1.156776 -0.343907,1.813326 v 3.376537 c 0,0.844134 0.156322,1.594474 0.531492,2.251023 0.343907,0.687814 0.781607,1.219305 1.281834,1.625741 0.500227,0.437698 1.031719,0.719077 1.594476,0.906662 0.562755,0.187585 1.094247,0.250115 1.594476,0.250115 h 24.167248 v 3.439065 H 65.694056 Z"
         style="font-style:normal;font-variant:normal;font-weight:normal;font-stretch:normal;font-size:28.8257px;font-family:OtomoW05-Regular;-inkscape-font-specification:OtomoW05-Regular;fill:#989da4;fill-opacity:1;stroke-width:0.651339"
         id="path849-4" />
      <path
         d="m 101.7212,74.877128 h 29.16952 c 0.81287,0 1.56321,-0.156322 2.21976,-0.531492 0.65655,-0.375171 1.15677,-0.781606 1.53194,-1.219306 0.37518,-0.437698 0.65655,-0.906662 0.90667,-1.469417 0.21885,-0.531492 0.34391,-1.125513 0.34391,-1.813326 V 66.46705 c 0,-0.81287 -0.18759,-1.563211 -0.5315,-2.251024 -0.37517,-0.656549 -0.81287,-1.188041 -1.3131,-1.62574 -0.50022,-0.406435 -1.03171,-0.687813 -1.59447,-0.875398 -0.56276,-0.187586 -1.06298,-0.281379 -1.56321,-0.281379 h -24.16725 v -3.4078 H 135.893 v -5.033541 h -29.16953 c -0.84413,0 -1.59447,0.187585 -2.25102,0.562756 -0.65655,0.37517 -1.15678,0.750342 -1.53195,1.18804 -0.37517,0.437699 -0.65655,0.937927 -0.8754,1.469419 -0.25011,0.562756 -0.3439,1.156776 -0.3439,1.813326 v 3.376537 c 0,0.844134 0.15632,1.594474 0.53149,2.251023 0.3439,0.687814 0.7816,1.219305 1.28183,1.625741 0.50023,0.437698 1.03172,0.719077 1.59448,0.906662 0.56275,0.187585 1.09424,0.250115 1.59447,0.250115 h 24.16725 v 3.439065 H 101.7212 Z"
         style="font-style:normal;font-variant:normal;font-weight:normal;font-stretch:normal;font-size:28.8257px;font-family:OtomoW05-Regular;-inkscape-font-specification:OtomoW05-Regular;fill:#989da4;fill-opacity:1;stroke-width:0.651339"
         id="path851-7" />
    </g>
    <path
       id="path898"
       d="M 276.0415,83.075527 V 111.96019"
       style="fill:none;stroke:#989da4;stroke-width:0.973561;stroke-linecap:butt;stroke-linejoin:miter;stroke-miterlimit:4;stroke-dasharray:none;stroke-opacity:1" />
  </g>
</svg>
