<svg fill="currentColor" viewBox="0 0 512 512" xmlns="http://www.w3.org/2000/svg">
    <path d="M 150.294922 448.050415 C 133.770126 448.104401 118 435.265228 118 415.999634 L 118 95.999634 C 118 68.59967 149.900024 54.300049 170.5 71.400024 L 256 148.874634 L 256 95.999634 C 256 68.59967 287.900024 54.300049 308.5 71.400024 L 500.5 231.400024 C 515.799927 244.200012 515.799927 267.799255 500.5 280.599243 L 308.5 440.599243 C 287.900024 457.799194 256 443.399597 256 415.999634 L 256 362.577759 L 170.5 440.599243 C 164.384384 445.705475 157.272064 448.027618 150.294922 448.050415 Z"/>
    <path d="M 64 75.998413 L 64 435.951172 C 64 442.550323 58.600006 447.949585 52 447.949585 L 12 447.949585 C 5.399994 447.949585 0 442.550323 0 435.951172 L 0 284.071106 L 0 226.778625 L 0 75.998413 C 0 69.399292 5.399994 64 12 64 L 52 64 C 58.600006 64 64 69.399292 64 75.998413 Z"/>
</svg>
